<svg width="21" height="20" viewBox="0 0 21 20" fill="none" xmlns="http://www.w3.org/2000/svg">
    <path d="M10.096 0C4.57596 0 0.105957 4.48 0.105957 10C0.105957 15.52 4.57596 20 10.096 20C15.626 20 20.106 15.52 20.106 10C20.106 4.48 15.626 0 10.096 0Z"
          fill="#00FFC4"/>
    <path d="M13.289 14.4913L10.6057 12.8746L7.92237 14.4913C7.60571 14.6829 7.21404 14.3996 7.29737 14.0413L8.00571 10.9913L5.64737 8.94961C5.37237 8.70794 5.52237 8.24961 5.88904 8.21628L9.00571 7.94961L10.2224 5.07461C10.364 4.73294 10.8474 4.73294 10.989 5.07461L12.2057 7.94128L15.3224 8.20794C15.689 8.24128 15.839 8.69961 15.5557 8.94128L13.1974 10.9829L13.9057 14.0413C13.989 14.3996 13.6057 14.6829 13.289 14.4913Z"
          fill="currentColor"/>
</svg>
